<svg width="200" height="200" viewBox="0 0 200 200" fill="none" xmlns="http://www.w3.org/2000/svg">
<rect width="200" height="200" rx="40" fill="#DC2625"/>
<path d="M14.5266 138V82.56H28.9366L30.3666 89.71C32.1266 87.1433 34.4366 85.09 37.2966 83.55C40.2299 82.01 43.6032 81.24 47.4166 81.24C50.1299 81.24 52.5866 81.6067 54.7866 82.34C56.9866 83 58.9299 84.0267 60.6166 85.42C62.3032 86.74 63.6966 88.4267 64.7966 90.48C66.9232 87.62 69.6366 85.3833 72.9366 83.77C76.2366 82.0833 79.8299 81.24 83.7166 81.24C88.7032 81.24 92.8099 82.23 96.0366 84.21C99.3366 86.19 101.793 89.05 103.407 92.79C105.02 96.53 105.827 101.077 105.827 106.43V138H89.4366V107.86C89.4366 103.827 88.6299 100.71 87.0166 98.51C85.4766 96.2367 82.9832 95.1 79.5366 95.1C77.3366 95.1 75.3932 95.65 73.7066 96.75C72.0199 97.85 70.6999 99.39 69.7466 101.37C68.8666 103.35 68.4266 105.733 68.4266 108.52V138H52.0366V107.86C52.0366 103.827 51.2299 100.71 49.6166 98.51C48.0032 96.2367 45.3999 95.1 41.8066 95.1C39.7532 95.1 37.8832 95.65 36.1966 96.75C34.5832 97.85 33.2999 99.39 32.3466 101.37C31.4666 103.35 31.0266 105.733 31.0266 108.52V138H14.5266ZM112.105 138V82.56H128.605V138H112.105ZM120.355 76.18C117.422 76.18 115.038 75.3367 113.205 73.65C111.372 71.9633 110.455 69.8367 110.455 67.27C110.455 64.63 111.372 62.4667 113.205 60.78C115.038 59.0933 117.422 58.25 120.355 58.25C123.362 58.25 125.782 59.0933 127.615 60.78C129.522 62.4667 130.475 64.63 130.475 67.27C130.475 69.8367 129.522 71.9633 127.615 73.65C125.782 75.3367 123.362 76.18 120.355 76.18ZM130.385 138L150.625 110.28L130.385 82.56H148.205L160.965 100.49L173.725 82.56H191.435L171.195 110.28L191.435 138H173.725L160.965 119.96L148.205 138H130.385Z" fill="white"/>
</svg>
