<svg width="451" height="82" viewBox="0 0 451 82" fill="none" xmlns="http://www.w3.org/2000/svg">
<path d="M0.150001 80V24.56H14.56L15.99 31.71C17.75 29.1433 20.06 27.09 22.92 25.55C25.8533 24.01 29.2267 23.24 33.04 23.24C35.7533 23.24 38.21 23.6067 40.41 24.34C42.61 25 44.5533 26.0267 46.24 27.42C47.9267 28.74 49.32 30.4267 50.42 32.48C52.5467 29.62 55.26 27.3833 58.56 25.77C61.86 24.0833 65.4533 23.24 69.34 23.24C74.3267 23.24 78.4333 24.23 81.66 26.21C84.96 28.19 87.4167 31.05 89.03 34.79C90.6433 38.53 91.45 43.0767 91.45 48.43V80H75.06V49.86C75.06 45.8267 74.2533 42.71 72.64 40.51C71.1 38.2367 68.6067 37.1 65.16 37.1C62.96 37.1 61.0167 37.65 59.33 38.75C57.6433 39.85 56.3233 41.39 55.37 43.37C54.49 45.35 54.05 47.7333 54.05 50.52V80H37.66V49.86C37.66 45.8267 36.8533 42.71 35.24 40.51C33.6267 38.2367 31.0233 37.1 27.43 37.1C25.3767 37.1 23.5067 37.65 21.82 38.75C20.2067 39.85 18.9233 41.39 17.97 43.37C17.09 45.35 16.65 47.7333 16.65 50.52V80H0.150001ZM123.689 81.32C117.969 81.32 112.945 80.1467 108.619 77.8C104.292 75.38 100.882 72.0433 98.3886 67.79C95.9686 63.4633 94.7586 58.5133 94.7586 52.94C94.7586 47.22 95.9686 42.1233 98.3886 37.65C100.809 33.1767 104.182 29.6567 108.509 27.09C112.835 24.5233 117.859 23.24 123.579 23.24C129.152 23.24 134.029 24.45 138.209 26.87C142.389 29.29 145.652 32.59 147.999 36.77C150.419 40.8767 151.629 45.6433 151.629 51.07C151.629 51.8033 151.592 52.6467 151.519 53.6C151.519 54.48 151.445 55.3967 151.299 56.35H106.529V46.78H134.799C134.652 43.7 133.515 41.2433 131.389 39.41C129.335 37.5033 126.769 36.55 123.689 36.55C121.342 36.55 119.215 37.1 117.309 38.2C115.402 39.3 113.862 40.95 112.689 43.15C111.589 45.35 111.039 48.1367 111.039 51.51V54.81C111.039 57.3767 111.515 59.65 112.469 61.63C113.495 63.61 114.925 65.15 116.759 66.25C118.665 67.35 120.902 67.9 123.469 67.9C125.889 67.9 127.869 67.4233 129.409 66.47C131.022 65.4433 132.269 64.16 133.149 62.62H149.979C148.952 66.14 147.192 69.33 144.699 72.19C142.205 74.9767 139.162 77.2133 135.569 78.9C131.975 80.5133 128.015 81.32 123.689 81.32ZM154.962 80V24.56H169.372L170.692 33.47C172.379 30.39 174.762 27.9333 177.842 26.1C180.922 24.1933 184.662 23.24 189.062 23.24C193.682 23.24 197.569 24.23 200.722 26.21C203.875 28.19 206.259 31.05 207.872 34.79C209.559 38.4567 210.402 42.9667 210.402 48.32V80H194.012V49.86C194.012 45.8267 193.132 42.71 191.372 40.51C189.685 38.2367 186.972 37.1 183.232 37.1C181.032 37.1 179.015 37.65 177.182 38.75C175.422 39.7767 174.029 41.28 173.002 43.26C171.975 45.24 171.462 47.6233 171.462 50.41V80H154.962ZM236.242 81.32C231.622 81.32 227.698 80.3667 224.472 78.46C221.318 76.5533 218.898 73.7667 217.212 70.1C215.598 66.36 214.792 61.8133 214.792 56.46V24.56H231.292V54.81C231.292 58.9167 232.135 62.07 233.822 64.27C235.508 66.3967 238.222 67.46 241.962 67.46C244.235 67.46 246.252 66.9467 248.012 65.92C249.845 64.8933 251.238 63.39 252.192 61.41C253.218 59.43 253.732 57.01 253.732 54.15V24.56H270.232V80H255.822L254.502 71.2C252.888 74.2067 250.542 76.6633 247.462 78.57C244.382 80.4033 240.642 81.32 236.242 81.32Z" fill="white"/>
<path d="M275.721 80V24.56H290.131L291.561 31.71C293.321 29.1433 295.631 27.09 298.491 25.55C301.425 24.01 304.798 23.24 308.611 23.24C311.325 23.24 313.781 23.6067 315.981 24.34C318.181 25 320.125 26.0267 321.811 27.42C323.498 28.74 324.891 30.4267 325.991 32.48C328.118 29.62 330.831 27.3833 334.131 25.77C337.431 24.0833 341.025 23.24 344.911 23.24C349.898 23.24 354.005 24.23 357.231 26.21C360.531 28.19 362.988 31.05 364.601 34.79C366.215 38.53 367.021 43.0767 367.021 48.43V80H350.631V49.86C350.631 45.8267 349.825 42.71 348.211 40.51C346.671 38.2367 344.178 37.1 340.731 37.1C338.531 37.1 336.588 37.65 334.901 38.75C333.215 39.85 331.895 41.39 330.941 43.37C330.061 45.35 329.621 47.7333 329.621 50.52V80H313.231V49.86C313.231 45.8267 312.425 42.71 310.811 40.51C309.198 38.2367 306.595 37.1 303.001 37.1C300.948 37.1 299.078 37.65 297.391 38.75C295.778 39.85 294.495 41.39 293.541 43.37C292.661 45.35 292.221 47.7333 292.221 50.52V80H275.721ZM372.2 80V24.56H388.7V80H372.2ZM380.45 18.18C377.517 18.18 375.133 17.3367 373.3 15.65C371.467 13.9633 370.55 11.8367 370.55 9.27C370.55 6.63 371.467 4.46666 373.3 2.78C375.133 1.09333 377.517 0.249997 380.45 0.249997C383.457 0.249997 385.877 1.09333 387.71 2.78C389.617 4.46666 390.57 6.63 390.57 9.27C390.57 11.8367 389.617 13.9633 387.71 15.65C385.877 17.3367 383.457 18.18 380.45 18.18ZM389.38 80L409.62 52.28L389.38 24.56H407.2L419.96 42.49L432.72 24.56H450.43L430.19 52.28L450.43 80H432.72L419.96 61.96L407.2 80H389.38Z" fill="#DC2625"/>
</svg>
