<svg width="451" height="82" viewBox="0 0 451 82" fill="none" xmlns="http://www.w3.org/2000/svg">
<path d="M0.655066 80V24.56H15.0651L16.4951 31.71C18.2551 29.1433 20.5651 27.09 23.4251 25.55C26.3584 24.01 29.7317 23.24 33.5451 23.24C36.2584 23.24 38.7151 23.6067 40.9151 24.34C43.1151 25 45.0584 26.0267 46.7451 27.42C48.4317 28.74 49.8251 30.4267 50.9251 32.48C53.0517 29.62 55.7651 27.3833 59.0651 25.77C62.3651 24.0833 65.9584 23.24 69.8451 23.24C74.8317 23.24 78.9384 24.23 82.1651 26.21C85.4651 28.19 87.9217 31.05 89.5351 34.79C91.1484 38.53 91.9551 43.0767 91.9551 48.43V80H75.5651V49.86C75.5651 45.8267 74.7584 42.71 73.1451 40.51C71.6051 38.2367 69.1117 37.1 65.6651 37.1C63.4651 37.1 61.5217 37.65 59.8351 38.75C58.1484 39.85 56.8284 41.39 55.8751 43.37C54.9951 45.35 54.5551 47.7333 54.5551 50.52V80H38.1651V49.86C38.1651 45.8267 37.3584 42.71 35.7451 40.51C34.1317 38.2367 31.5284 37.1 27.9351 37.1C25.8817 37.1 24.0117 37.65 22.3251 38.75C20.7117 39.85 19.4284 41.39 18.4751 43.37C17.5951 45.35 17.1551 47.7333 17.1551 50.52V80H0.655066ZM124.194 81.32C118.474 81.32 113.45 80.1467 109.124 77.8C104.797 75.38 101.387 72.0433 98.8937 67.79C96.4737 63.4633 95.2637 58.5133 95.2637 52.94C95.2637 47.22 96.4737 42.1233 98.8937 37.65C101.314 33.1767 104.687 29.6567 109.014 27.09C113.34 24.5233 118.364 23.24 124.084 23.24C129.657 23.24 134.534 24.45 138.714 26.87C142.894 29.29 146.157 32.59 148.504 36.77C150.924 40.8767 152.134 45.6433 152.134 51.07C152.134 51.8033 152.097 52.6467 152.024 53.6C152.024 54.48 151.95 55.3967 151.804 56.35H107.034V46.78H135.304C135.157 43.7 134.02 41.2433 131.894 39.41C129.84 37.5033 127.274 36.55 124.194 36.55C121.847 36.55 119.72 37.1 117.814 38.2C115.907 39.3 114.367 40.95 113.194 43.15C112.094 45.35 111.544 48.1367 111.544 51.51V54.81C111.544 57.3767 112.02 59.65 112.974 61.63C114 63.61 115.43 65.15 117.264 66.25C119.17 67.35 121.407 67.9 123.974 67.9C126.394 67.9 128.374 67.4233 129.914 66.47C131.527 65.4433 132.774 64.16 133.654 62.62H150.484C149.457 66.14 147.697 69.33 145.204 72.19C142.71 74.9767 139.667 77.2133 136.074 78.9C132.48 80.5133 128.52 81.32 124.194 81.32ZM155.467 80V24.56H169.877L171.197 33.47C172.884 30.39 175.267 27.9333 178.347 26.1C181.427 24.1933 185.167 23.24 189.567 23.24C194.187 23.24 198.074 24.23 201.227 26.21C204.381 28.19 206.764 31.05 208.377 34.79C210.064 38.4567 210.907 42.9667 210.907 48.32V80H194.517V49.86C194.517 45.8267 193.637 42.71 191.877 40.51C190.191 38.2367 187.477 37.1 183.737 37.1C181.537 37.1 179.521 37.65 177.687 38.75C175.927 39.7767 174.534 41.28 173.507 43.26C172.481 45.24 171.967 47.6233 171.967 50.41V80H155.467ZM236.747 81.32C232.127 81.32 228.204 80.3667 224.977 78.46C221.824 76.5533 219.404 73.7667 217.717 70.1C216.104 66.36 215.297 61.8133 215.297 56.46V24.56H231.797V54.81C231.797 58.9167 232.64 62.07 234.327 64.27C236.014 66.3967 238.727 67.46 242.467 67.46C244.74 67.46 246.757 66.9467 248.517 65.92C250.35 64.8933 251.744 63.39 252.697 61.41C253.724 59.43 254.237 57.01 254.237 54.15V24.56H270.737V80H256.327L255.007 71.2C253.394 74.2067 251.047 76.6633 247.967 78.57C244.887 80.4033 241.147 81.32 236.747 81.32Z" fill="#18181B"/>
<path d="M276.227 80V24.56H290.637L292.067 31.71C293.827 29.1433 296.137 27.09 298.997 25.55C301.93 24.01 305.303 23.24 309.117 23.24C311.83 23.24 314.287 23.6067 316.487 24.34C318.687 25 320.63 26.0267 322.317 27.42C324.003 28.74 325.397 30.4267 326.497 32.48C328.623 29.62 331.337 27.3833 334.637 25.77C337.937 24.0833 341.53 23.24 345.417 23.24C350.403 23.24 354.51 24.23 357.737 26.21C361.037 28.19 363.493 31.05 365.107 34.79C366.72 38.53 367.527 43.0767 367.527 48.43V80H351.137V49.86C351.137 45.8267 350.33 42.71 348.717 40.51C347.177 38.2367 344.683 37.1 341.237 37.1C339.037 37.1 337.093 37.65 335.407 38.75C333.72 39.85 332.4 41.39 331.447 43.37C330.567 45.35 330.127 47.7333 330.127 50.52V80H313.737V49.86C313.737 45.8267 312.93 42.71 311.317 40.51C309.703 38.2367 307.1 37.1 303.507 37.1C301.453 37.1 299.583 37.65 297.897 38.75C296.283 39.85 295 41.39 294.047 43.37C293.167 45.35 292.727 47.7333 292.727 50.52V80H276.227ZM372.705 80V24.56H389.205V80H372.705ZM380.955 18.18C378.022 18.18 375.638 17.3367 373.805 15.65C371.972 13.9633 371.055 11.8367 371.055 9.27C371.055 6.63 371.972 4.46666 373.805 2.78C375.638 1.09333 378.022 0.249997 380.955 0.249997C383.962 0.249997 386.382 1.09333 388.215 2.78C390.122 4.46666 391.075 6.63 391.075 9.27C391.075 11.8367 390.122 13.9633 388.215 15.65C386.382 17.3367 383.962 18.18 380.955 18.18ZM389.885 80L410.125 52.28L389.885 24.56H407.705L420.465 42.49L433.225 24.56H450.935L430.695 52.28L450.935 80H433.225L420.465 61.96L407.705 80H389.885Z" fill="#DC2625"/>
</svg>
